<svg width="128" height="128" viewBox="0 0 128 128" fill="none" xmlns="http://www.w3.org/2000/svg">
  <mask id="mask0_2001_6" style="mask-type:alpha" maskUnits="userSpaceOnUse" x="5" y="5" width="118" height="118">
    <circle cx="64" cy="64" r="59" fill="black" />
  </mask>
  <g mask="url(#mask0_2001_6)">
    <circle cx="64" cy="64" r="59" fill="#2B2B2B" />
    <path d="M64 52C70.6274 52 76 57.3726 76 64C76 69.2244 72.6602 73.6658 68 75.3135V123H60V75.3135C55.3398 73.6658 52 69.2244 52 64C52 57.3726 57.3726 52 64 52ZM32 92C34.2091 92 36 93.7909 36 96C36 98.2091 34.2091 100 32 100C29.7909 100 28 98.2091 28 96C28 93.7909 29.7909 92 32 92ZM96 92C98.2091 92 100 93.7909 100 96C100 98.2091 98.2091 100 96 100C93.7909 100 92 98.2091 92 96C92 93.7909 93.7909 92 96 92ZM46 75C49.866 75 53 78.134 53 82C53 85.866 49.866 89 46 89C42.134 89 39 85.866 39 82C39 78.134 42.134 75 46 75ZM82 75C85.866 75 89 78.134 89 82C89 85.866 85.866 89 82 89C78.134 89 75 85.866 75 82C75 78.134 78.134 75 82 75ZM40 57C43.866 57 47 60.134 47 64C47 67.866 43.866 71 40 71C36.134 71 33 67.866 33 64C33 60.134 36.134 57 40 57ZM88 57C91.866 57 95 60.134 95 64C95 67.866 91.866 71 88 71C84.134 71 81 67.866 81 64C81 60.134 84.134 57 88 57ZM21 60C23.2091 60 25 61.7909 25 64C25 66.2091 23.2091 68 21 68C18.7909 68 17 66.2091 17 64C17 61.7909 18.7909 60 21 60ZM107 60C109.209 60 111 61.7909 111 64C111 66.2091 109.209 68 107 68C104.791 68 103 66.2091 103 64C103 61.7909 104.791 60 107 60ZM46 39C49.866 39 53 42.134 53 46C53 49.866 49.866 53 46 53C42.134 53 39 49.866 39 46C39 42.134 42.134 39 46 39ZM82 39C85.866 39 89 42.134 89 46C89 49.866 85.866 53 82 53C78.134 53 75 49.866 75 46C75 42.134 78.134 39 82 39ZM64 33C67.866 33 71 36.134 71 40C71 43.866 67.866 47 64 47C60.134 47 57 43.866 57 40C57 36.134 60.134 33 64 33ZM32 28C34.2091 28 36 29.7909 36 32C36 34.2091 34.2091 36 32 36C29.7909 36 28 34.2091 28 32C28 29.7909 29.7909 28 32 28ZM96 28C98.2091 28 100 29.7909 100 32C100 34.2091 98.2091 36 96 36C93.7909 36 92 34.2091 92 32C92 29.7909 93.7909 28 96 28ZM64 17C66.2091 17 68 18.7909 68 21C68 23.2091 66.2091 25 64 25C61.7909 25 60 23.2091 60 21C60 18.7909 61.7909 17 64 17Z" fill="white" />
  </g>
</svg>
